<svg xmlns="http://www.w3.org/2000/svg" viewBox="0 0 266.77 260"><defs><style>.cls-1{fill:#424143;stroke:#424143;stroke-miterlimit:10;stroke-width:1.88px;}.cls-2{fill:none;}.cls-3{fill:#d7c19b;}.cls-4{fill:#e2d4b0;}.cls-5{fill:#4673b9;}</style></defs><g id="Layer_2" data-name="Layer 2"><g id="Layer_1-2" data-name="Layer 1"><path class="cls-1" d="M63.31,170.72s19.6,45.46,68.48,50.84c0,0,32.4,5.16,61.08-18.07C192.87,203.49,113.16,235,63.31,170.72Z"/><path class="cls-1" d="M149.32,40.19S116.92,35,88.24,58.26c0,0,79.71-31.52,129.56,32.77C217.8,91,198.2,45.56,149.32,40.19Z"/><path class="cls-2" d="M225,150.59v0h-.24Z"/><path class="cls-3" d="M57.24,109.91A80,80,0,0,0,55,130.24h0a113.63,113.63,0,0,0,2.26,20.18s34.34-3.91,83.76-3.89v-31.6A712,712,0,0,1,57.24,109.91Zm57.34,21c-6.51,4.13-21.35,10.82-33.52-3.74a1.74,1.74,0,0,1,1.57-2.84L113.91,128A1.55,1.55,0,0,1,114.58,130.9Z"/><path class="cls-4" d="M141.05,146.53c24.9,0,53.62,1,83.71,4H225a79.85,79.85,0,0,0,2.21-20.31h0a113.82,113.82,0,0,0-2.26-20.18s-33.76,5-83.89,4.86ZM168.21,128l31.3-3.72a1.74,1.74,0,0,1,1.57,2.84c-12.18,14.56-27,7.86-33.54,3.74A1.55,1.55,0,0,1,168.21,128Z"/><path d="M131.79,221.56c-48.88-5.38-68.48-50.84-68.48-50.84,49.85,64.28,129.56,32.77,129.56,32.77C164.19,226.72,131.79,221.56,131.79,221.56Zm95.41-91.31h0a80.72,80.72,0,0,1-2.2,20.31v0l-.23,0c-30.07-3-58.76-4-83.64-4h-.07c-49.42,0-83.76,3.89-83.76,3.89A113.63,113.63,0,0,1,55,130.24h0a80,80,0,0,1,2.2-20.33,712,712,0,0,0,83.81,5h.07c50.09.1,83.82-4.86,83.82-4.86A112.89,112.89,0,0,1,227.2,130.25Zm-139-72C116.92,35,149.32,40.19,149.32,40.19,198.2,45.56,217.8,91,217.8,91,168,26.74,88.24,58.26,88.24,58.26ZM141.05,27.5c-48,0-88,36.35-96.23,84.29-8.15-6.94-22.22-13.11-42.93-3A3.33,3.33,0,0,0,.72,113.9c4.3,5.42,14.48,15.8,29.31,16-9.12,5.3-18.93,16.05-16.63,37.55a3.67,3.67,0,0,0,4.81,3c7.31-2.33,21.9-8.86,26.17-24.5C51.57,195.24,92.11,233,141.05,233c54,0,97.81-46,97.81-102.75S195.07,27.5,141.05,27.5Z"/><path d="M113.91,128l-31.28-3.72a1.74,1.74,0,0,0-1.57,2.84c12.17,14.56,27,7.87,33.52,3.74A1.55,1.55,0,0,0,113.91,128Z"/><path d="M167.59,130.9c6.51,4.12,21.35,10.82,33.51-3.74a1.74,1.74,0,0,0-1.57-2.84L168.26,128A1.55,1.55,0,0,0,167.59,130.9Z"/><path class="cls-5" d="M41.27,161c18,50,56.3,77,99.25,77,57.48,0,104.25-48.45,104.25-108S198,22,140.52,22c-45.7,0-90.25,34-101.25,82a40.22,40.22,0,0,0-21-4c6-27,24.74-57,46-73.63A122.77,122.77,0,0,1,140.52,0c69.62,0,126.25,58.32,126.25,130S210.14,260,140.52,260a123.06,123.06,0,0,1-71.86-23.1"/><path class="cls-5" d="M39.27,104a40.22,40.22,0,0,0-21-4c6-32,24.74-57,46-73.63"/><path class="cls-5" d="M68.66,236.9C48.06,222.19,31.27,194,23.27,173c14-3,18-12,18-12"/></g></g></svg>